<?xml version="1.0" encoding="utf-8"?>
<!-- Generator: Adobe Illustrator 15.0.0, SVG Export Plug-In . SVG Version: 6.00 Build 0)  -->
<!DOCTYPE svg PUBLIC "-//W3C//DTD SVG 1.1//EN" "http://www.w3.org/Graphics/SVG/1.1/DTD/svg11.dtd">
<svg version="1.1" id="Ebene_1" xmlns="http://www.w3.org/2000/svg" xmlns:xlink="http://www.w3.org/1999/xlink" x="0px" y="0px"
	 width="250px" height="100px" viewBox="0 0 250 100" enable-background="new 0 0 250 100" xml:space="preserve">
<g>
	<defs>
		<rect id="SVGID_1_" x="24.194" y="25.758" width="201.306" height="48.953"/>
	</defs>
	<clipPath id="SVGID_2_">
		<use xlink:href="#SVGID_1_"  overflow="visible"/>
	</clipPath>
	<path clip-path="url(#SVGID_2_)" fill="#030000" d="M223.545,33.824c0.219,0.009,0.405,0.012,0.559,0.012
		c0.136,0,0.305-0.003,0.507-0.012c0.204-0.009,0.373-0.021,0.509-0.039c0.015-0.153,0.028-0.338,0.037-0.558
		c0.008-0.221,0.013-0.406,0.013-0.559c0-0.136-0.005-0.305-0.013-0.508c-0.009-0.203-0.022-0.372-0.037-0.508
		c-0.136-0.015-0.305-0.028-0.509-0.037c-0.202-0.009-0.371-0.013-0.507-0.013c-0.153,0-0.34,0.004-0.559,0.013
		c-0.222,0.008-0.407,0.021-0.557,0.037c-0.02,0.136-0.031,0.305-0.04,0.508s-0.013,0.372-0.013,0.508
		c0,0.153,0.004,0.338,0.013,0.559c0.009,0.22,0.021,0.405,0.04,0.558C223.138,33.802,223.323,33.815,223.545,33.824
		 M223.823,49.902c0.104,0.016,0.246,0.029,0.433,0.038c0.185,0.009,0.32,0.013,0.406,0.013c0.103,0,0.239-0.004,0.419-0.013
		c0.177-0.008,0.317-0.021,0.417-0.038V36.958h-3.3c-0.016,0.084-0.028,0.193-0.036,0.33c-0.009,0.136-0.013,0.271-0.013,0.406
		c0,0.136,0.004,0.263,0.013,0.381c0.008,0.118,0.021,0.22,0.036,0.304h1.625V49.902z M210.117,42.288
		c0.136-1.319,0.535-2.343,1.193-3.071c0.661-0.728,1.583-1.093,2.768-1.093c0.643,0,1.192,0.121,1.649,0.355
		c0.456,0.238,0.829,0.547,1.118,0.928c0.287,0.381,0.497,0.825,0.633,1.333c0.136,0.508,0.202,1.023,0.202,1.548H210.117z
		 M219.306,43.683c0.017-0.167,0.03-0.372,0.039-0.608c0.008-0.237,0.013-0.432,0.013-0.583c0-0.847-0.115-1.629-0.344-2.349
		c-0.228-0.718-0.565-1.336-1.014-1.853c-0.45-0.516-1.003-0.918-1.664-1.205c-0.659-0.289-1.413-0.433-2.258-0.433
		c-1.016,0-1.889,0.178-2.615,0.534c-0.728,0.356-1.324,0.845-1.789,1.471c-0.466,0.625-0.812,1.355-1.04,2.182
		c-0.228,0.831-0.342,1.719-0.342,2.665c0,0.982,0.123,1.884,0.367,2.704c0.246,0.821,0.626,1.526,1.142,2.119
		c0.518,0.593,1.176,1.053,1.98,1.384c0.804,0.33,1.763,0.495,2.881,0.495c0.777,0,1.496-0.059,2.158-0.178
		c0.658-0.119,1.233-0.287,1.724-0.507c-0.017-0.22-0.05-0.465-0.1-0.737c-0.053-0.271-0.119-0.499-0.205-0.685
		c-0.523,0.186-1.061,0.335-1.611,0.445s-1.147,0.163-1.79,0.163c-1.59,0-2.783-0.405-3.577-1.217
		c-0.797-0.813-1.192-2.081-1.192-3.808H219.306z M200.98,46.882c0,1.167,0.301,2.009,0.901,2.525
		c0.603,0.516,1.384,0.773,2.348,0.773c0.813,0,1.524-0.092,2.132-0.278c-0.048-0.508-0.135-0.981-0.253-1.421
		c-0.44,0.153-0.955,0.228-1.55,0.228c-0.235,0-0.469-0.021-0.696-0.063c-0.228-0.042-0.432-0.131-0.609-0.267
		c-0.177-0.135-0.32-0.325-0.431-0.57c-0.11-0.245-0.164-0.58-0.164-1.002v-8.427h3.5c0.02-0.084,0.032-0.194,0.04-0.33
		c0.007-0.135,0.012-0.27,0.012-0.406c0-0.136-0.005-0.263-0.012-0.381c-0.008-0.12-0.021-0.22-0.04-0.304h-3.5v-3.985h-0.104
		l-1.574,1.548v2.438h-2.208c-0.017,0.084-0.028,0.185-0.037,0.304c-0.008,0.118-0.013,0.245-0.013,0.381
		c0,0.136,0.005,0.271,0.013,0.406c0.009,0.136,0.021,0.246,0.037,0.33h2.208V46.882z M191.515,49.902
		c0.102,0.016,0.246,0.029,0.431,0.038c0.187,0.009,0.321,0.013,0.407,0.013c0.103,0,0.24-0.004,0.419-0.013
		c0.178-0.008,0.316-0.021,0.42-0.038v-6.649c0-1.692,0.346-2.903,1.04-3.629c0.692-0.728,1.615-1.091,2.765-1.091h0.241
		c0.078,0,0.183,0.008,0.317,0.025c0.052-0.255,0.077-0.517,0.077-0.788c0-0.253-0.025-0.523-0.077-0.811
		c-0.118-0.018-0.224-0.026-0.317-0.026h-0.266c-0.999,0-1.802,0.214-2.411,0.647c-0.61,0.432-1.084,0.961-1.422,1.586
		c0-0.338-0.009-0.714-0.025-1.131c-0.017-0.413-0.041-0.772-0.077-1.077c-0.136-0.018-0.263-0.031-0.379-0.039
		c-0.119-0.008-0.246-0.013-0.382-0.013c-0.117,0-0.24,0.004-0.367,0.013s-0.258,0.021-0.394,0.039V49.902z M185.628,42.136
		c-0.29-0.034-0.653-0.073-1.093-0.115c-0.44-0.042-0.963-0.063-1.572-0.063c-0.779,0-1.495,0.094-2.146,0.279
		c-0.652,0.186-1.212,0.462-1.675,0.823c-0.465,0.365-0.83,0.814-1.092,1.347c-0.263,0.534-0.393,1.139-0.393,1.813
		c0,1.406,0.452,2.421,1.357,3.046c0.903,0.627,2.144,0.94,3.718,0.94c0.762,0,1.564-0.059,2.41-0.178
		c0.847-0.119,1.566-0.235,2.158-0.355v-8.553c0-1.54-0.397-2.669-1.192-3.388c-0.797-0.72-2.015-1.08-3.655-1.08
		c-0.678,0-1.336,0.046-1.979,0.138c-0.645,0.096-1.187,0.21-1.627,0.345c0,0.253,0.032,0.525,0.09,0.811
		c0.061,0.289,0.132,0.509,0.215,0.661c0.44-0.135,0.94-0.249,1.5-0.342c0.559-0.095,1.176-0.142,1.854-0.142
		c1.029,0,1.808,0.26,2.333,0.776c0.525,0.514,0.788,1.332,0.788,2.449V42.136z M185.628,48.455
		c-0.442,0.086-0.889,0.153-1.345,0.204c-0.459,0.049-0.949,0.075-1.475,0.075c-0.404,0-0.812-0.029-1.218-0.088
		c-0.407-0.059-0.778-0.178-1.115-0.355c-0.34-0.178-0.615-0.436-0.826-0.774c-0.21-0.338-0.316-0.787-0.316-1.345
		c0-0.88,0.346-1.557,1.04-2.031c0.692-0.475,1.675-0.711,2.944-0.711c0.391,0,0.798,0.021,1.23,0.064
		c0.432,0.041,0.79,0.08,1.08,0.114V48.455z M165.22,42.365c0-0.814,0.132-1.486,0.395-2.019c0.264-0.534,0.593-0.964,0.99-1.294
		c0.396-0.33,0.832-0.563,1.308-0.699c0.473-0.134,0.914-0.202,1.317-0.202c1.306,0,2.248,0.44,2.832,1.319
		c0.584,0.879,0.876,2.099,0.876,3.655c0,0.981-0.127,1.823-0.383,2.525c-0.254,0.701-0.6,1.281-1.039,1.739
		c-0.439,0.457-0.957,0.79-1.548,1.002c-0.594,0.211-1.22,0.316-1.878,0.316c-0.695,0-1.25-0.039-1.664-0.113
		c-0.414-0.076-0.815-0.19-1.206-0.342V42.365z M163.546,55.893c0.102,0.017,0.241,0.027,0.419,0.038
		c0.177,0.007,0.316,0.013,0.419,0.013c0.083,0,0.219-0.006,0.405-0.013c0.188-0.011,0.331-0.021,0.431-0.038V49.8
		c0.391,0.135,0.822,0.237,1.295,0.305c0.474,0.067,0.913,0.102,1.32,0.102c1.102,0,2.076-0.166,2.932-0.495
		c0.854-0.331,1.574-0.803,2.156-1.421c0.584-0.618,1.027-1.371,1.333-2.259s0.456-1.891,0.456-3.008
		c0-1.118-0.131-2.072-0.393-2.868c-0.263-0.795-0.625-1.457-1.091-1.979c-0.465-0.524-1.027-0.91-1.688-1.155
		c-0.66-0.245-1.389-0.369-2.184-0.369c-1.065,0-1.934,0.212-2.601,0.635c-0.669,0.423-1.18,0.905-1.537,1.447l-0.152-1.776
		c-0.102-0.018-0.229-0.031-0.379-0.039c-0.152-0.008-0.279-0.013-0.382-0.013c-0.102,0-0.229,0.004-0.379,0.013
		c-0.153,0.008-0.28,0.021-0.382,0.039V55.893z"/>
	<path clip-path="url(#SVGID_2_)" fill="#4C2582" d="M148.19,49.903c0.609,0.101,1.21,0.151,1.802,0.151
		c0.593,0,1.193-0.05,1.802-0.151v-6.879c0-0.711,0.078-1.285,0.229-1.725c0.151-0.439,0.351-0.782,0.597-1.028
		c0.244-0.246,0.521-0.411,0.823-0.495c0.307-0.085,0.603-0.127,0.888-0.127c0.694,0,1.183,0.246,1.46,0.737
		c0.28,0.49,0.421,1.192,0.421,2.106v7.412c0.607,0.101,1.21,0.151,1.801,0.151s1.194-0.05,1.803-0.151v-8.376
		c0-1.742-0.377-3.021-1.131-3.832c-0.752-0.813-1.873-1.22-3.362-1.22c-0.474,0-0.906,0.065-1.293,0.191
		c-0.391,0.127-0.74,0.292-1.055,0.496c-0.313,0.203-0.586,0.43-0.824,0.684c-0.237,0.255-0.442,0.508-0.608,0.762
		c-0.02-0.118-0.038-0.262-0.065-0.432c-0.024-0.167-0.054-0.341-0.087-0.519c-0.036-0.178-0.073-0.348-0.115-0.509
		c-0.042-0.159-0.089-0.283-0.14-0.367c-0.238-0.052-0.464-0.089-0.685-0.115c-0.22-0.026-0.475-0.037-0.763-0.037
		c-0.287,0-0.548,0.011-0.786,0.037c-0.237,0.026-0.473,0.063-0.711,0.115V49.903z M136.82,41.933
		c0.086-0.864,0.347-1.531,0.786-2.005c0.44-0.474,1.084-0.711,1.93-0.711c0.745,0,1.323,0.25,1.738,0.75
		c0.413,0.498,0.639,1.155,0.675,1.966H136.82z M145.221,44.444c0.034-0.186,0.063-0.434,0.09-0.748
		c0.025-0.313,0.038-0.63,0.038-0.952c0-0.879-0.128-1.704-0.382-2.474c-0.254-0.769-0.63-1.435-1.13-1.992
		c-0.5-0.559-1.104-0.999-1.814-1.32c-0.709-0.322-1.522-0.483-2.434-0.483c-1.051,0-1.97,0.183-2.754,0.546
		c-0.788,0.365-1.45,0.858-1.982,1.484c-0.532,0.627-0.935,1.362-1.205,2.209c-0.271,0.846-0.406,1.751-0.406,2.715
		c0,0.984,0.131,1.887,0.394,2.717c0.264,0.828,0.668,1.543,1.218,2.144c0.551,0.601,1.262,1.071,2.133,1.408
		c0.872,0.338,1.915,0.508,3.134,0.508c1.658,0,3.148-0.254,4.466-0.761c-0.016-0.54-0.091-1.049-0.228-1.524
		c-0.135-0.473-0.296-0.879-0.481-1.217c-0.543,0.204-1.112,0.359-1.713,0.471c-0.602,0.109-1.188,0.164-1.765,0.164
		c-1.049,0-1.896-0.229-2.537-0.686c-0.643-0.456-0.999-1.193-1.066-2.209H145.221z M124.561,45.46c0,1.626,0.406,2.796,1.218,3.516
		c0.813,0.719,1.988,1.078,3.529,1.078c0.828,0,1.632-0.093,2.411-0.278c0.016-0.119,0.029-0.241,0.038-0.369
		c0.009-0.127,0.012-0.282,0.012-0.47c0-0.27-0.024-0.579-0.077-0.925c-0.05-0.346-0.135-0.681-0.252-1.004
		c-0.188,0.034-0.402,0.074-0.648,0.115c-0.244,0.042-0.493,0.063-0.749,0.063c-0.321,0-0.6-0.034-0.836-0.1
		c-0.238-0.068-0.438-0.195-0.598-0.382c-0.161-0.187-0.284-0.44-0.367-0.762c-0.085-0.321-0.127-0.744-0.127-1.27v-5.151h3.071
		c0.05-0.27,0.083-0.517,0.101-0.736c0.018-0.22,0.027-0.449,0.027-0.685c0-0.221-0.01-0.432-0.027-0.635
		c-0.018-0.204-0.051-0.432-0.101-0.685h-3.071v-3.833h-0.584l-4.747,6.066l0.128,0.508h1.648V45.46z M117.505,41.577
		c-0.593-0.05-1.133-0.076-1.623-0.076c-0.677,0-1.355,0.071-2.032,0.216c-0.677,0.144-1.291,0.381-1.84,0.709
		c-0.55,0.33-0.999,0.771-1.345,1.322c-0.348,0.549-0.52,1.23-0.52,2.042c0,0.812,0.138,1.497,0.417,2.055
		c0.279,0.559,0.677,1.017,1.193,1.372c0.518,0.355,1.134,0.607,1.854,0.76c0.718,0.153,1.51,0.229,2.372,0.229
		c1.066,0,2.023-0.085,2.868-0.254c0.847-0.169,1.567-0.346,2.158-0.533v-7.614c0-1.861-0.495-3.215-1.483-4.061
		c-0.991-0.845-2.365-1.27-4.125-1.27c-0.642,0-1.337,0.06-2.081,0.178c-0.744,0.119-1.488,0.305-2.234,0.558
		c0,0.541,0.059,1.007,0.177,1.396c0.12,0.389,0.297,0.804,0.533,1.244c1.033-0.355,2.005-0.533,2.918-0.533
		c0.423,0,0.81,0.026,1.156,0.075c0.348,0.052,0.639,0.149,0.875,0.293c0.238,0.145,0.424,0.343,0.56,0.595
		c0.135,0.254,0.202,0.584,0.202,0.992V41.577z M117.505,47.237c-0.186,0.034-0.406,0.072-0.659,0.115
		c-0.253,0.042-0.508,0.063-0.761,0.063c-0.221,0-0.479-0.013-0.775-0.039c-0.297-0.024-0.576-0.092-0.837-0.201
		c-0.263-0.111-0.486-0.284-0.673-0.521c-0.185-0.235-0.278-0.575-0.278-1.015c0-0.66,0.241-1.137,0.722-1.435
		c0.484-0.295,1.139-0.444,1.968-0.444c0.187,0,0.397,0.013,0.635,0.039c0.237,0.025,0.458,0.056,0.659,0.088V47.237z
		 M101.009,49.928c0.32,0.05,0.631,0.084,0.925,0.102c0.295,0.016,0.589,0.024,0.875,0.024c0.29,0,0.584-0.008,0.89-0.024
		c0.305-0.017,0.609-0.051,0.914-0.102v-6.244c0-0.913,0.106-1.623,0.317-2.132c0.212-0.507,0.477-0.888,0.798-1.141
		c0.322-0.254,0.661-0.411,1.016-0.47c0.356-0.06,0.678-0.089,0.965-0.089h0.42c0.228,0,0.435,0.016,0.621,0.051
		c0.067-0.305,0.113-0.626,0.141-0.965c0.024-0.337,0.037-0.65,0.037-0.939c0-0.236-0.008-0.465-0.024-0.685
		c-0.017-0.22-0.044-0.414-0.077-0.584c-0.102-0.033-0.263-0.057-0.483-0.076c-0.219-0.017-0.414-0.024-0.583-0.024
		c-0.812,0-1.488,0.206-2.031,0.623c-0.54,0.413-0.998,0.882-1.369,1.407c-0.017-0.117-0.039-0.267-0.063-0.444
		c-0.027-0.177-0.055-0.355-0.09-0.533c-0.033-0.178-0.073-0.347-0.114-0.508c-0.042-0.16-0.087-0.283-0.14-0.367
		c-0.236-0.052-0.477-0.093-0.722-0.127c-0.246-0.034-0.497-0.05-0.751-0.05c-0.269,0-0.519,0.011-0.748,0.037
		c-0.228,0.026-0.47,0.063-0.722,0.115V49.928z M94.333,34.675c0.338,0.015,0.644,0.024,0.914,0.024
		c0.287,0,0.598-0.009,0.928-0.024c0.329-0.018,0.637-0.052,0.925-0.104c0.051-0.287,0.086-0.574,0.103-0.862
		c0.015-0.288,0.024-0.567,0.024-0.837c0-0.287-0.01-0.572-0.024-0.851c-0.017-0.279-0.052-0.563-0.103-0.85
		c-0.288-0.052-0.601-0.089-0.938-0.114c-0.338-0.026-0.651-0.039-0.94-0.039c-0.27,0-0.571,0.013-0.901,0.039
		c-0.329,0.025-0.638,0.063-0.926,0.114c-0.102,0.592-0.151,1.16-0.151,1.701c0,0.558,0.05,1.125,0.151,1.699
		C93.683,34.623,93.996,34.657,94.333,34.675 M93.927,49.903c0.608,0.101,1.192,0.151,1.751,0.151c0.575,0,1.169-0.05,1.776-0.151
		V36.781h-5.228c-0.101,0.439-0.151,0.888-0.151,1.345c0,0.22,0.012,0.452,0.037,0.697c0.025,0.246,0.064,0.48,0.114,0.7h1.701
		V49.903z M81.745,42.643c0-0.423,0.042-0.82,0.127-1.192c0.084-0.371,0.22-0.699,0.406-0.978c0.186-0.28,0.426-0.5,0.724-0.66
		c0.296-0.16,0.654-0.241,1.079-0.241c0.456,0,0.841,0.093,1.155,0.279c0.313,0.187,0.571,0.44,0.773,0.762
		c0.204,0.321,0.346,0.706,0.431,1.154c0.085,0.449,0.128,0.935,0.128,1.459c0,1.371-0.28,2.395-0.839,3.071
		c-0.559,0.677-1.361,1.016-2.41,1.016c-0.593,0-1.118-0.067-1.575-0.203V42.643z M78.142,55.917
		c0.322,0.052,0.629,0.085,0.926,0.102s0.588,0.026,0.876,0.026c0.287,0,0.579-0.01,0.875-0.026c0.295-0.017,0.605-0.05,0.926-0.102
		V50.08c0.186,0.034,0.42,0.064,0.698,0.088c0.28,0.028,0.563,0.039,0.851,0.039c1.117,0,2.116-0.166,2.995-0.495
		c0.88-0.33,1.624-0.8,2.234-1.408c0.608-0.61,1.074-1.35,1.396-2.221c0.322-0.87,0.482-1.857,0.482-2.957
		c0-1.134-0.131-2.116-0.394-2.946c-0.262-0.828-0.63-1.518-1.103-2.068c-0.475-0.548-1.029-0.96-1.664-1.23
		c-0.634-0.271-1.316-0.407-2.043-0.407c-0.474,0-0.905,0.065-1.294,0.191c-0.39,0.127-0.741,0.292-1.054,0.496
		c-0.313,0.203-0.58,0.436-0.799,0.697c-0.219,0.263-0.406,0.53-0.559,0.8c-0.017-0.117-0.038-0.267-0.063-0.444
		c-0.024-0.177-0.06-0.36-0.102-0.545c-0.043-0.186-0.085-0.36-0.127-0.521c-0.042-0.159-0.088-0.283-0.14-0.367
		c-0.491-0.102-0.974-0.152-1.446-0.152c-0.29,0-0.546,0.007-0.775,0.024c-0.228,0.019-0.461,0.05-0.697,0.101V55.917z"/>
	<path display="none" clip-path="url(#SVGID_2_)" fill="#FFFFFF" d="M66.47,48.455c0,10.809-8.763,19.571-19.576,19.571
		c-10.806,0-19.571-8.763-19.571-19.571c0-10.808,8.766-19.571,19.571-19.571C57.707,28.884,66.47,37.647,66.47,48.455"/>
	<path display="none" clip-path="url(#SVGID_2_)" fill="#1D1D1B" d="M46.895,67.328c-10.421,0-18.874-8.45-18.874-18.874
		c0-10.422,8.452-18.872,18.874-18.872c10.427,0,18.876,8.45,18.876,18.872C65.771,58.878,57.322,67.328,46.895,67.328
		 M46.895,27.421c-11.617,0-21.037,9.412-21.037,21.033c0,11.616,9.42,21.033,21.037,21.033c11.619,0,21.039-9.417,21.039-21.033
		C67.934,36.833,58.514,27.421,46.895,27.421"/>
	<path display="none" clip-path="url(#SVGID_2_)" fill="#1D1D1B" d="M43.881,50.862c-1.101,0.771-2.015,1.49-2.771,2.181V38.416
		c1.53,0.324,3.148,0.985,4.266,2.301C48.124,43.96,47.192,48.539,43.881,50.862 M55.888,37.987
		c-4.552-2.554-10.254-2.574-14.777-1.415v-1.959h-1.964v2.559c-0.842,0.305-1.623,0.651-2.317,1.024c0,0,0.976-0.118,2.317-0.038
		v17.119c-0.976,1.505-1.21,2.968-0.98,4.655c0.26,1.884,1.684,3.145,2.805,4.076c-0.66-1.902-0.711-3.633-0.516-4.682
		c0.371-1.957,1.518-3.362,6.47-4.434c5.138-1.107,11.224-1.621,13.237-6.608C61.078,46.006,61.648,41.217,55.888,37.987"/>
	<path display="none" clip-path="url(#SVGID_2_)" fill="#1D1D1B" d="M31.388,32.947c-3.971,3.968-6.425,9.45-6.425,15.508
		c0,6.054,2.454,11.535,6.425,15.505s9.45,6.425,15.508,6.425c6.054,0,11.538-2.455,15.508-6.425
		c3.969-3.97,6.424-9.451,6.424-15.505c0-6.058-2.455-11.54-6.424-15.508c-3.97-3.968-9.454-6.422-15.508-6.422
		C40.838,26.525,35.358,28.979,31.388,32.947 M24.194,48.455c0-12.54,10.165-22.697,22.702-22.697c12.536,0,22.7,10.157,22.7,22.697
		c0,12.533-10.165,22.697-22.7,22.697C34.359,71.152,24.194,60.988,24.194,48.455"/>
</g>
<g>
	<path fill="#010000" d="M76.891,59.907c0.051-0.008,0.118-0.015,0.199-0.02c0.081-0.003,0.164-0.005,0.25-0.005
		c0.068,0,0.151,0.002,0.25,0.005c0.099,0.005,0.173,0.012,0.225,0.02l1.447,5.561l1.614-5.561c0.068-0.008,0.143-0.015,0.224-0.02
		c0.082-0.003,0.169-0.005,0.263-0.005h0.211c0.073,0,0.143,0.007,0.211,0.024l1.615,5.482l1.448-5.482
		c0.051-0.008,0.113-0.015,0.186-0.02c0.072-0.003,0.143-0.005,0.211-0.005s0.145,0.002,0.23,0.005
		c0.085,0.005,0.153,0.012,0.205,0.02l-1.883,6.534c-0.154,0.026-0.303,0.038-0.449,0.038c-0.162,0-0.312-0.012-0.448-0.038
		l-1.576-5.407l-1.652,5.407c-0.153,0.026-0.303,0.038-0.448,0.038c-0.162,0-0.312-0.012-0.448-0.038L76.891,59.907z"/>
	<path fill="#010000" d="M86.474,59.907c0.051-0.008,0.118-0.015,0.199-0.02c0.08-0.003,0.164-0.005,0.25-0.005
		c0.068,0,0.151,0.002,0.25,0.005c0.099,0.005,0.173,0.012,0.225,0.02l1.447,5.561l1.614-5.561c0.069-0.008,0.143-0.015,0.224-0.02
		c0.082-0.003,0.169-0.005,0.263-0.005h0.211c0.073,0,0.144,0.007,0.211,0.024l1.615,5.482l1.448-5.482
		c0.051-0.008,0.113-0.015,0.185-0.02c0.073-0.003,0.143-0.005,0.211-0.005c0.069,0,0.145,0.002,0.231,0.005
		c0.085,0.005,0.153,0.012,0.205,0.02l-1.883,6.534c-0.154,0.026-0.303,0.038-0.448,0.038c-0.162,0-0.312-0.012-0.449-0.038
		l-1.576-5.407l-1.652,5.407c-0.154,0.026-0.304,0.038-0.448,0.038c-0.163,0-0.312-0.012-0.449-0.038L86.474,59.907z"/>
	<path fill="#010000" d="M96.043,59.907c0.051-0.008,0.118-0.015,0.199-0.02c0.082-0.003,0.165-0.005,0.25-0.005
		c0.068,0,0.151,0.002,0.25,0.005c0.099,0.005,0.173,0.012,0.225,0.02l1.448,5.561l1.614-5.561c0.068-0.008,0.143-0.015,0.224-0.02
		c0.082-0.003,0.169-0.005,0.263-0.005h0.211c0.072,0,0.143,0.007,0.211,0.024l1.614,5.482L104,59.907
		c0.051-0.008,0.113-0.015,0.186-0.02c0.072-0.003,0.143-0.005,0.211-0.005c0.068,0,0.145,0.002,0.23,0.005
		c0.085,0.005,0.153,0.012,0.205,0.02l-1.884,6.534c-0.153,0.026-0.303,0.038-0.448,0.038c-0.162,0-0.312-0.012-0.448-0.038
		l-1.576-5.407l-1.652,5.407c-0.154,0.026-0.304,0.038-0.448,0.038c-0.162,0-0.312-0.012-0.449-0.038L96.043,59.907z"/>
	<path fill="#010000" d="M105.589,66.441c-0.026-0.18-0.039-0.359-0.039-0.538c0-0.188,0.013-0.373,0.039-0.552
		c0.179-0.025,0.358-0.038,0.538-0.038c0.188,0,0.371,0.013,0.55,0.038c0.026,0.179,0.039,0.359,0.039,0.539
		c0,0.187-0.013,0.371-0.039,0.551c-0.179,0.025-0.358,0.038-0.538,0.038C105.952,66.479,105.768,66.467,105.589,66.441"/>
	<path fill="#010000" d="M108.522,59.907c0.051-0.009,0.115-0.015,0.192-0.019c0.077-0.004,0.141-0.006,0.192-0.006
		c0.052,0,0.115,0.002,0.192,0.006s0.141,0.01,0.192,0.019l0.077,0.896c0.179-0.273,0.438-0.516,0.775-0.73
		c0.337-0.213,0.775-0.319,1.313-0.319c0.401,0,0.768,0.062,1.101,0.185c0.333,0.126,0.617,0.318,0.853,0.583
		c0.235,0.266,0.418,0.599,0.551,0.999c0.132,0.402,0.198,0.884,0.198,1.448c0,0.565-0.077,1.07-0.23,1.519
		s-0.378,0.829-0.672,1.142c-0.295,0.311-0.658,0.55-1.089,0.716c-0.431,0.168-0.925,0.249-1.48,0.249
		c-0.205,0-0.427-0.016-0.667-0.051c-0.239-0.034-0.457-0.085-0.653-0.154v3.076c-0.051,0.008-0.125,0.015-0.218,0.019
		c-0.094,0.004-0.163,0.008-0.205,0.008c-0.051,0-0.122-0.004-0.211-0.008c-0.091-0.004-0.161-0.011-0.212-0.019V59.907z
		 M109.368,65.608c0.196,0.077,0.399,0.135,0.608,0.173c0.209,0.039,0.488,0.057,0.839,0.057c0.333,0,0.649-0.053,0.948-0.16
		c0.299-0.105,0.56-0.273,0.781-0.506c0.222-0.23,0.397-0.521,0.525-0.876c0.128-0.355,0.192-0.78,0.192-1.275
		c0-0.785-0.147-1.399-0.442-1.844c-0.294-0.444-0.77-0.667-1.428-0.667c-0.205,0-0.427,0.033-0.666,0.102
		c-0.239,0.069-0.459,0.186-0.66,0.353c-0.201,0.168-0.367,0.386-0.499,0.655c-0.133,0.268-0.199,0.606-0.199,1.017V65.608z"/>
	<path fill="#010000" d="M116.414,60.624h-0.82c-0.008-0.042-0.015-0.094-0.019-0.153c-0.005-0.059-0.006-0.124-0.006-0.192
		s0.001-0.135,0.006-0.205c0.004-0.068,0.011-0.123,0.019-0.166h1.666v6.534c-0.051,0.009-0.122,0.015-0.211,0.02
		c-0.089,0.004-0.161,0.007-0.211,0.007c-0.044,0-0.112-0.003-0.205-0.007c-0.094-0.005-0.167-0.011-0.218-0.02V60.624z
		 M115.991,58.307c-0.009-0.078-0.016-0.172-0.02-0.283c-0.004-0.111-0.006-0.205-0.006-0.281c0-0.068,0.002-0.154,0.006-0.257
		c0.004-0.103,0.011-0.187,0.02-0.255c0.077-0.01,0.171-0.015,0.282-0.02c0.111-0.006,0.205-0.008,0.281-0.008
		c0.068,0,0.154,0.002,0.257,0.008c0.102,0.005,0.188,0.01,0.256,0.02c0.009,0.068,0.014,0.152,0.019,0.255
		c0.004,0.103,0.007,0.188,0.007,0.257c0,0.076-0.002,0.17-0.007,0.281c-0.005,0.111-0.01,0.205-0.019,0.283
		c-0.068,0.008-0.154,0.016-0.256,0.02c-0.103,0.003-0.188,0.005-0.257,0.005c-0.076,0-0.17-0.002-0.281-0.005
		C116.162,58.322,116.068,58.314,115.991,58.307"/>
	<path fill="#010000" d="M119.45,59.907c0.068-0.008,0.134-0.015,0.199-0.02c0.064-0.003,0.126-0.005,0.186-0.005
		c0.068,0,0.133,0.002,0.192,0.005c0.06,0.005,0.124,0.012,0.191,0.02c0.018,0.155,0.031,0.335,0.039,0.544
		c0.009,0.21,0.013,0.399,0.013,0.57c0.17-0.315,0.41-0.582,0.717-0.801c0.308-0.218,0.713-0.326,1.218-0.326h0.134
		c0.047,0,0.1,0.005,0.16,0.013c0.025,0.146,0.038,0.282,0.038,0.41c0,0.137-0.013,0.269-0.038,0.396
		c-0.068-0.008-0.122-0.013-0.16-0.013h-0.122c-0.581,0-1.046,0.184-1.396,0.551c-0.351,0.368-0.525,0.978-0.525,1.834v3.355
		c-0.051,0.009-0.122,0.015-0.211,0.02c-0.09,0.004-0.161,0.007-0.211,0.007c-0.043,0-0.111-0.003-0.205-0.007
		c-0.094-0.005-0.167-0.011-0.218-0.02V59.907z"/>
	<path fill="#010000" d="M127.354,62.125c0-0.565-0.134-0.977-0.397-1.238c-0.266-0.261-0.657-0.391-1.179-0.391
		c-0.341,0-0.653,0.024-0.935,0.071c-0.282,0.048-0.534,0.104-0.755,0.173c-0.044-0.077-0.08-0.188-0.109-0.334
		c-0.03-0.145-0.045-0.28-0.045-0.41c0.222-0.067,0.495-0.126,0.82-0.173s0.658-0.069,1-0.069c0.828,0,1.443,0.182,1.845,0.545
		c0.401,0.362,0.602,0.933,0.602,1.709v4.318c-0.299,0.06-0.661,0.118-1.089,0.179c-0.427,0.061-0.832,0.089-1.217,0.089
		c-0.793,0-1.42-0.156-1.876-0.472c-0.457-0.317-0.685-0.831-0.685-1.54c0-0.34,0.065-0.646,0.198-0.914
		c0.132-0.27,0.316-0.495,0.551-0.681c0.234-0.183,0.515-0.322,0.846-0.414c0.329-0.095,0.689-0.142,1.081-0.142
		c0.309,0,0.573,0.01,0.795,0.032c0.223,0.021,0.406,0.041,0.552,0.058V62.125z M127.354,63.265
		c-0.146-0.019-0.327-0.037-0.545-0.059s-0.425-0.031-0.622-0.031c-0.64,0-1.135,0.117-1.485,0.358
		c-0.352,0.238-0.526,0.581-0.526,1.025c0,0.282,0.054,0.507,0.16,0.679c0.107,0.17,0.246,0.301,0.417,0.39
		c0.171,0.091,0.359,0.149,0.563,0.181c0.206,0.03,0.41,0.045,0.615,0.045c0.265,0,0.512-0.015,0.743-0.038
		c0.231-0.027,0.457-0.061,0.68-0.103V63.265z"/>
	<path fill="#010000" d="M130.569,60.624h-1.114c-0.009-0.042-0.016-0.098-0.02-0.165c-0.004-0.07-0.006-0.137-0.006-0.206
		c0-0.068,0.002-0.133,0.006-0.19c0.004-0.062,0.011-0.112,0.02-0.155h1.114v-1.23l0.795-0.781h0.051v2.012h1.769
		c0.008,0.043,0.015,0.094,0.019,0.155c0.005,0.058,0.007,0.122,0.007,0.19c0,0.069-0.002,0.136-0.007,0.206
		c-0.004,0.067-0.011,0.123-0.019,0.165h-1.769v4.253c0,0.216,0.027,0.385,0.084,0.507c0.055,0.124,0.127,0.221,0.218,0.29
		c0.089,0.067,0.191,0.111,0.307,0.133c0.116,0.021,0.233,0.031,0.353,0.031c0.299,0,0.559-0.036,0.781-0.115
		c0.061,0.223,0.103,0.462,0.128,0.719c-0.307,0.093-0.666,0.141-1.075,0.141c-0.487,0-0.883-0.13-1.186-0.391
		c-0.303-0.259-0.455-0.686-0.455-1.274V60.624z"/>
	<path fill="#010000" d="M135.105,63.302c0,0.872,0.2,1.512,0.602,1.923c0.402,0.409,1.004,0.613,1.806,0.613
		c0.325,0,0.626-0.026,0.904-0.082c0.277-0.057,0.549-0.131,0.813-0.225c0.042,0.094,0.076,0.209,0.102,0.346
		c0.026,0.136,0.043,0.26,0.053,0.372c-0.249,0.11-0.539,0.196-0.872,0.256c-0.334,0.061-0.695,0.089-1.089,0.089
		c-0.563,0-1.049-0.082-1.454-0.249c-0.405-0.166-0.739-0.399-0.999-0.698c-0.262-0.299-0.453-0.654-0.577-1.068
		c-0.123-0.415-0.186-0.869-0.186-1.366c0-0.478,0.058-0.925,0.173-1.346c0.115-0.417,0.291-0.784,0.525-1.101
		c0.235-0.317,0.536-0.563,0.904-0.742c0.365-0.18,0.806-0.27,1.318-0.27c0.428,0,0.807,0.071,1.141,0.218
		c0.332,0.146,0.612,0.347,0.839,0.607c0.226,0.262,0.396,0.573,0.512,0.935c0.115,0.365,0.174,0.759,0.174,1.188
		c0,0.076-0.003,0.175-0.007,0.295c-0.004,0.117-0.011,0.222-0.019,0.306H135.105z M138.949,62.598c0-0.265-0.036-0.525-0.104-0.781
		c-0.069-0.257-0.175-0.481-0.319-0.672c-0.146-0.192-0.335-0.349-0.564-0.47c-0.231-0.118-0.509-0.179-0.833-0.179
		c-0.599,0-1.064,0.185-1.396,0.552s-0.534,0.884-0.602,1.55H138.949z"/>
	<path fill="#010000" d="M141.587,59.907c0.068-0.008,0.135-0.015,0.199-0.02c0.063-0.003,0.125-0.005,0.185-0.005
		c0.068,0,0.133,0.002,0.192,0.005c0.061,0.005,0.124,0.012,0.192,0.02c0.018,0.155,0.03,0.346,0.038,0.576
		c0.01,0.23,0.014,0.431,0.014,0.603c0.085-0.154,0.196-0.31,0.333-0.468c0.137-0.157,0.296-0.301,0.479-0.429
		c0.185-0.127,0.396-0.233,0.634-0.314c0.24-0.08,0.5-0.122,0.781-0.122c0.752,0,1.3,0.225,1.642,0.673
		c0.34,0.448,0.511,1.078,0.511,1.891v4.125c-0.05,0.009-0.121,0.015-0.21,0.02c-0.09,0.004-0.161,0.007-0.211,0.007
		c-0.044,0-0.112-0.003-0.207-0.007c-0.094-0.005-0.166-0.011-0.217-0.02v-3.87c0-0.726-0.114-1.246-0.34-1.563
		c-0.227-0.316-0.564-0.474-1.02-0.474c-0.298,0-0.579,0.061-0.844,0.179c-0.266,0.12-0.494,0.293-0.686,0.52
		c-0.192,0.226-0.344,0.506-0.455,0.839c-0.11,0.332-0.166,0.713-0.166,1.14v3.229c-0.052,0.009-0.122,0.015-0.211,0.02
		c-0.09,0.004-0.161,0.007-0.212,0.007c-0.042,0-0.111-0.003-0.205-0.007c-0.094-0.005-0.167-0.011-0.218-0.02V59.907z"/>
	<path fill="#010000" d="M148.863,59.907c0.051-0.009,0.115-0.015,0.193-0.019c0.076-0.004,0.14-0.006,0.191-0.006
		c0.05,0,0.114,0.002,0.192,0.006c0.076,0.004,0.141,0.01,0.191,0.019l0.076,0.896c0.181-0.273,0.439-0.516,0.776-0.73
		c0.338-0.213,0.773-0.319,1.314-0.319c0.399,0,0.767,0.062,1.1,0.185c0.335,0.126,0.617,0.318,0.852,0.583
		c0.235,0.266,0.419,0.599,0.552,0.999c0.132,0.402,0.199,0.884,0.199,1.448c0,0.565-0.078,1.07-0.231,1.519
		c-0.152,0.448-0.378,0.829-0.673,1.142c-0.295,0.311-0.658,0.55-1.087,0.716c-0.433,0.168-0.927,0.249-1.481,0.249
		c-0.204,0-0.427-0.016-0.667-0.051c-0.237-0.034-0.456-0.085-0.653-0.154v3.076c-0.051,0.008-0.123,0.015-0.217,0.019
		c-0.096,0.004-0.162,0.008-0.206,0.008c-0.05,0-0.121-0.004-0.21-0.008c-0.091-0.004-0.161-0.011-0.212-0.019V59.907z
		 M149.708,65.608c0.197,0.077,0.399,0.135,0.609,0.173c0.208,0.039,0.488,0.057,0.838,0.057c0.334,0,0.651-0.053,0.949-0.16
		c0.298-0.105,0.559-0.273,0.781-0.506c0.223-0.23,0.396-0.521,0.526-0.876c0.127-0.355,0.191-0.78,0.191-1.275
		c0-0.785-0.147-1.399-0.441-1.844s-0.771-0.667-1.429-0.667c-0.206,0-0.428,0.033-0.667,0.102
		c-0.238,0.069-0.459,0.186-0.659,0.353c-0.2,0.168-0.367,0.386-0.5,0.655c-0.131,0.268-0.199,0.606-0.199,1.017V65.608z"/>
	<path fill="#010000" d="M159.958,62.125c0-0.565-0.132-0.977-0.396-1.238c-0.266-0.261-0.659-0.391-1.179-0.391
		c-0.342,0-0.655,0.024-0.936,0.071c-0.282,0.048-0.535,0.104-0.756,0.173c-0.043-0.077-0.079-0.188-0.11-0.334
		c-0.029-0.145-0.043-0.28-0.043-0.41c0.221-0.067,0.493-0.126,0.819-0.173c0.325-0.047,0.656-0.069,0.998-0.069
		c0.83,0,1.443,0.182,1.847,0.545c0.399,0.362,0.602,0.933,0.602,1.709v4.318c-0.3,0.06-0.663,0.118-1.088,0.179
		c-0.428,0.061-0.834,0.089-1.218,0.089c-0.795,0-1.42-0.156-1.877-0.472c-0.456-0.317-0.686-0.831-0.686-1.54
		c0-0.34,0.066-0.646,0.197-0.914c0.134-0.27,0.317-0.495,0.551-0.681c0.235-0.183,0.518-0.322,0.847-0.414
		c0.329-0.095,0.689-0.142,1.082-0.142c0.309,0,0.573,0.01,0.794,0.032c0.224,0.021,0.407,0.041,0.552,0.058V62.125z
		 M159.958,63.265c-0.145-0.019-0.326-0.037-0.545-0.059c-0.217-0.021-0.425-0.031-0.622-0.031c-0.64,0-1.136,0.117-1.486,0.358
		c-0.352,0.238-0.523,0.581-0.523,1.025c0,0.282,0.053,0.507,0.158,0.679c0.108,0.17,0.246,0.301,0.418,0.39
		c0.171,0.091,0.358,0.149,0.563,0.181c0.206,0.03,0.41,0.045,0.615,0.045c0.265,0,0.513-0.015,0.744-0.038
		c0.229-0.027,0.456-0.061,0.679-0.103V63.265z"/>
	<path fill="#010000" d="M162.879,59.907c0.067-0.008,0.136-0.015,0.197-0.02c0.065-0.003,0.128-0.005,0.187-0.005
		c0.068,0,0.134,0.002,0.193,0.005c0.059,0.005,0.123,0.012,0.191,0.02c0.017,0.155,0.029,0.335,0.038,0.544
		c0.009,0.21,0.013,0.399,0.013,0.57c0.171-0.315,0.411-0.582,0.716-0.801c0.31-0.218,0.715-0.326,1.22-0.326h0.135
		c0.046,0,0.101,0.005,0.157,0.013c0.028,0.146,0.041,0.282,0.041,0.41c0,0.137-0.013,0.269-0.041,0.396
		c-0.067-0.008-0.12-0.013-0.157-0.013h-0.123c-0.58,0-1.047,0.184-1.397,0.551c-0.351,0.368-0.522,0.978-0.522,1.834v3.355
		c-0.053,0.009-0.123,0.015-0.213,0.02c-0.09,0.004-0.161,0.007-0.212,0.007c-0.043,0-0.109-0.003-0.205-0.007
		c-0.094-0.005-0.165-0.011-0.217-0.02V59.907z"/>
	<path fill="#010000" d="M167.605,60.624h-1.113c-0.011-0.042-0.017-0.098-0.021-0.165c-0.004-0.07-0.006-0.137-0.006-0.206
		c0-0.068,0.002-0.133,0.006-0.19c0.004-0.062,0.01-0.112,0.021-0.155h1.113v-1.23l0.794-0.781h0.053v2.012h1.767
		c0.011,0.043,0.017,0.094,0.021,0.155c0.005,0.058,0.007,0.122,0.007,0.19c0,0.069-0.002,0.136-0.007,0.206
		c-0.004,0.067-0.01,0.123-0.021,0.165h-1.767v4.253c0,0.216,0.027,0.385,0.083,0.507c0.055,0.124,0.128,0.221,0.217,0.29
		c0.09,0.067,0.192,0.111,0.308,0.133c0.116,0.021,0.233,0.031,0.353,0.031c0.3,0,0.561-0.036,0.781-0.115
		c0.061,0.223,0.102,0.462,0.129,0.719c-0.308,0.093-0.666,0.141-1.075,0.141c-0.488,0-0.882-0.13-1.187-0.391
		c-0.303-0.259-0.455-0.686-0.455-1.274V60.624z"/>
	<path fill="#010000" d="M172.142,63.302c0,0.872,0.199,1.512,0.602,1.923c0.4,0.409,1.003,0.613,1.806,0.613
		c0.325,0,0.626-0.026,0.903-0.082c0.277-0.057,0.549-0.131,0.813-0.225c0.043,0.094,0.077,0.209,0.104,0.346
		c0.025,0.136,0.041,0.26,0.049,0.372c-0.247,0.11-0.537,0.196-0.871,0.256c-0.331,0.061-0.693,0.089-1.088,0.089
		c-0.563,0-1.049-0.082-1.454-0.249c-0.406-0.166-0.739-0.399-0.998-0.698c-0.261-0.299-0.454-0.654-0.577-1.068
		c-0.123-0.415-0.187-0.869-0.187-1.366c0-0.478,0.059-0.925,0.174-1.346c0.114-0.417,0.289-0.784,0.524-1.101
		c0.233-0.317,0.536-0.563,0.903-0.742c0.367-0.18,0.808-0.27,1.319-0.27c0.428,0,0.808,0.071,1.142,0.218
		c0.331,0.146,0.613,0.347,0.838,0.607c0.228,0.262,0.397,0.573,0.513,0.935c0.114,0.365,0.173,0.759,0.173,1.188
		c0,0.076-0.002,0.175-0.006,0.295c-0.004,0.117-0.011,0.222-0.019,0.306H172.142z M175.983,62.598c0-0.265-0.033-0.525-0.102-0.781
		c-0.068-0.257-0.176-0.481-0.32-0.672c-0.145-0.192-0.333-0.349-0.564-0.47c-0.229-0.118-0.508-0.179-0.832-0.179
		c-0.598,0-1.063,0.185-1.396,0.552c-0.334,0.367-0.533,0.884-0.603,1.55H175.983z"/>
	<path fill="#010000" d="M179.034,60.624h-0.821c-0.009-0.042-0.015-0.094-0.02-0.153c-0.004-0.059-0.005-0.124-0.005-0.192
		s0.001-0.135,0.005-0.205c0.005-0.068,0.011-0.123,0.02-0.166h1.667v6.534c-0.053,0.009-0.122,0.015-0.212,0.02
		c-0.089,0.004-0.16,0.007-0.212,0.007c-0.042,0-0.109-0.003-0.205-0.007c-0.094-0.005-0.166-0.011-0.217-0.02V60.624z
		 M178.611,58.307c-0.009-0.078-0.015-0.172-0.019-0.283c-0.007-0.111-0.009-0.205-0.009-0.281c0-0.068,0.002-0.154,0.009-0.257
		c0.004-0.103,0.01-0.187,0.019-0.255c0.077-0.01,0.17-0.015,0.281-0.02c0.111-0.006,0.205-0.008,0.281-0.008
		c0.069,0,0.155,0.002,0.257,0.008c0.103,0.005,0.188,0.01,0.257,0.02c0.008,0.068,0.015,0.152,0.019,0.255
		c0.005,0.103,0.007,0.188,0.007,0.257c0,0.076-0.002,0.17-0.007,0.281c-0.004,0.111-0.011,0.205-0.019,0.283
		c-0.069,0.008-0.154,0.016-0.257,0.02c-0.102,0.003-0.188,0.005-0.257,0.005c-0.076,0-0.17-0.002-0.281-0.005
		C178.781,58.322,178.688,58.314,178.611,58.307"/>
	<path fill="#010000" d="M181.725,66.441c-0.027-0.18-0.04-0.359-0.04-0.538c0-0.188,0.013-0.373,0.04-0.552
		c0.179-0.025,0.359-0.038,0.538-0.038c0.187,0,0.371,0.013,0.55,0.038c0.025,0.179,0.038,0.359,0.038,0.539
		c0,0.187-0.013,0.371-0.038,0.551c-0.179,0.025-0.358,0.038-0.537,0.038C182.087,66.479,181.903,66.467,181.725,66.441"/>
	<path fill="#010000" d="M188.257,62.125c0-0.565-0.134-0.977-0.396-1.238c-0.265-0.261-0.659-0.391-1.18-0.391
		c-0.343,0-0.653,0.024-0.935,0.071c-0.282,0.048-0.534,0.104-0.757,0.173c-0.043-0.077-0.079-0.188-0.108-0.334
		c-0.03-0.145-0.045-0.28-0.045-0.41c0.222-0.067,0.495-0.126,0.819-0.173s0.658-0.069,1-0.069c0.827,0,1.442,0.182,1.845,0.545
		c0.4,0.362,0.603,0.933,0.603,1.709v4.318c-0.3,0.06-0.662,0.118-1.092,0.179c-0.426,0.061-0.831,0.089-1.214,0.089
		c-0.795,0-1.42-0.156-1.879-0.472c-0.457-0.317-0.685-0.831-0.685-1.54c0-0.34,0.065-0.646,0.199-0.914
		c0.131-0.27,0.316-0.495,0.55-0.681c0.235-0.183,0.518-0.322,0.847-0.414c0.327-0.095,0.688-0.142,1.082-0.142
		c0.307,0,0.571,0.01,0.795,0.032c0.221,0.021,0.404,0.041,0.55,0.058V62.125z M188.257,63.265
		c-0.146-0.019-0.327-0.037-0.544-0.059c-0.219-0.021-0.425-0.031-0.621-0.031c-0.64,0-1.137,0.117-1.486,0.358
		c-0.352,0.238-0.526,0.581-0.526,1.025c0,0.282,0.055,0.507,0.161,0.679c0.106,0.17,0.246,0.301,0.416,0.39
		c0.172,0.091,0.359,0.149,0.563,0.181c0.205,0.03,0.411,0.045,0.615,0.045c0.265,0,0.513-0.015,0.742-0.038
		c0.231-0.027,0.457-0.061,0.68-0.103V63.265z"/>
	<path fill="#010000" d="M191.473,60.624h-1.113c-0.011-0.042-0.017-0.098-0.021-0.165c-0.004-0.07-0.006-0.137-0.006-0.206
		c0-0.068,0.002-0.133,0.006-0.19c0.005-0.062,0.011-0.112,0.021-0.155h1.113v-1.23l0.794-0.781h0.053v2.012h1.766
		c0.011,0.043,0.017,0.094,0.021,0.155c0.004,0.058,0.006,0.122,0.006,0.19c0,0.069-0.002,0.136-0.006,0.206
		c-0.005,0.067-0.011,0.123-0.021,0.165h-1.766v4.253c0,0.216,0.027,0.385,0.083,0.507c0.055,0.124,0.127,0.221,0.217,0.29
		c0.09,0.067,0.192,0.111,0.307,0.133c0.117,0.021,0.233,0.031,0.353,0.031c0.3,0,0.561-0.036,0.781-0.115
		c0.061,0.223,0.103,0.462,0.13,0.719c-0.309,0.093-0.667,0.141-1.076,0.141c-0.488,0-0.882-0.13-1.187-0.391
		c-0.302-0.259-0.454-0.686-0.454-1.274V60.624z"/>
</g>
<path fill="#FFFFFF" d="M67.961,50.803c0,11.189-9.072,20.263-20.267,20.263c-11.187,0-20.261-9.073-20.261-20.263
	c0-11.19,9.074-20.262,20.261-20.262C58.889,30.541,67.961,39.613,67.961,50.803"/>
<path fill="#1D1D1B" d="M47.695,70.342c-10.788,0-19.538-8.748-19.538-19.542c0-10.789,8.75-19.537,19.538-19.537
	c10.794,0,19.542,8.749,19.542,19.537C67.237,61.594,58.489,70.342,47.695,70.342 M47.695,29.026
	c-12.027,0-21.778,9.746-21.778,21.774c0,12.026,9.751,21.778,21.778,21.778c12.03,0,21.781-9.752,21.781-21.778
	C69.476,38.771,59.725,29.026,47.695,29.026"/>
<path fill="#1D1D1B" d="M44.576,53.293c-1.139,0.8-2.086,1.545-2.868,2.258V40.409c1.583,0.333,3.259,1.02,4.417,2.381
	C48.968,46.148,48.002,50.889,44.576,53.293 M57.007,39.965C52.294,37.321,46.391,37.3,41.708,38.5v-2.027h-2.034v2.648
	c-0.872,0.315-1.681,0.672-2.398,1.061c0,0,1.01-0.124,2.398-0.04v17.723c-1.01,1.557-1.255,3.07-1.014,4.818
	c0.267,1.951,1.741,3.256,2.903,4.22c-0.684-1.969-0.736-3.762-0.534-4.846c0.383-2.025,1.571-3.481,6.697-4.591
	c5.32-1.147,11.621-1.678,13.705-6.842C62.38,48.266,62.97,43.309,57.007,39.965"/>
<path fill="#1D1D1B" d="M31.498,34.604c-4.149,4.145-6.711,9.869-6.711,16.198c0,6.322,2.562,12.049,6.711,16.196
	c4.146,4.146,9.871,6.711,16.198,6.711c6.324,0,12.054-2.565,16.198-6.711c4.146-4.147,6.71-9.874,6.71-16.196
	c0-6.329-2.563-12.053-6.71-16.198c-4.144-4.146-9.874-6.709-16.198-6.709C41.369,27.895,35.644,30.458,31.498,34.604
	 M24.194,50.803c0-12.982,10.523-23.498,23.502-23.498c12.978,0,23.502,10.515,23.502,23.498c0,12.975-10.524,23.497-23.502,23.497
	C34.718,74.3,24.194,63.777,24.194,50.803"/>
</svg>
